Exact Audio Copy V0.99 prebeta 5 from 4. May 2009

EAC extraction logfile from 9. September 2010, 12:37

Pink Floyd / The Wall CD 2

Used drive  : HL-DT-STDVDRRW GSA-H30L   Adapter: 0  ID: 0

Read mode               : Secure
Utilize accurate stream : Yes
Defeat audio cache      : Yes
Make use of C2 pointers : No

Read offset correction                      : 102
Overread into Lead-In and Lead-Out          : No
Fill up missing offset samples with silence : Yes
Delete leading and trailing silent blocks   : No
Null samples used in CRC calculations       : Yes
Used interface                              : Installed external ASPI interface
Gap handling                                : Appended to previous track

Used output format              : User Defined Encoder
Selected bitrate                : 1024 kBit/s
Quality                         : High
Add ID3 tag                     : No
Command line compressor         : C:\Program Files\Exact Audio Copy\Flac\flac.exe
Additional command line options : -8 -V -T "ARTIST=%a" -T "TITLE=%t" -T "ALBUM=%g" -T "DATE=%y" -T "TRACKNUMBER=%n" -T "GENRE=%m" -T "COMMENT= EAC - FLAC - 8 - oan" %s


TOC of the extracted CD

     Track |   Start  |  Length  | Start sector | End sector 
    ---------------------------------------------------------
        1  |  0:00.00 |  4:41.40 |         0    |    21114   
        2  |  4:41.40 |  2:40.20 |     21115    |    33134   
        3  |  7:21.60 |  3:24.40 |     33135    |    48474   
        4  | 10:46.25 |  1:33.05 |     48475    |    55454   
        5  | 12:19.30 |  1:27.12 |     55455    |    61991   
        6  | 13:46.42 |  6:21.53 |     61992    |    90619   
        7  | 20:08.20 |  1:36.10 |     90620    |    97829   
        8  | 21:44.30 |  4:16.55 |     97830    |   117084   
        9  | 26:01.10 |  4:23.55 |    117085    |   136864   
       10  | 30:24.65 |  3:58.27 |    136865    |   154741   
       11  | 34:23.17 |  0:30.18 |    154742    |   157009   
       12  | 34:53.35 |  5:19.55 |    157010    |   180989   
       13  | 40:13.15 |  1:43.10 |    180990    |   188724   


Track  1

     Filename C:\Pink Floyd\01 - Hey You.wav

     Pre-gap length  0:00:02.00

     Peak level 95.0 %
     Track quality 100.0 %
     Test CRC F7C24702
     Copy CRC F7C24702
     Accurately ripped (confidence 200)  [28C95625]
     Copy OK

Track  2

     Filename C:\Pink Floyd\02 - Is There Anybody Out There.wav

     Pre-gap length  0:00:00.04

     Peak level 65.9 %
     Track quality 100.0 %
     Test CRC 031B2676
     Copy CRC 031B2676
     Accurately ripped (confidence 200)  [5FE0B597]
     Copy OK

Track  3

     Filename C:\Pink Floyd\03 - Nobody Home.wav

     Pre-gap length  0:00:00.04

     Peak level 61.9 %
     Track quality 99.9 %
     Test CRC AD7702D2
     Copy CRC AD7702D2
     Accurately ripped (confidence 200)  [25FF7543]
     Copy OK

Track  4

     Filename C:\Pink Floyd\04 - Vera.wav

     Pre-gap length  0:00:00.04

     Peak level 48.8 %
     Track quality 100.0 %
     Test CRC 6D5CD979
     Copy CRC 6D5CD979
     Accurately ripped (confidence 200)  [51C6E849]
     Copy OK

Track  5

     Filename C:\Pink Floyd\05 - Bring The Boys Back Home.wav

     Pre-gap length  0:00:00.04

     Peak level 90.2 %
     Track quality 100.0 %
     Test CRC 919FBA8E
     Copy CRC 919FBA8E
     Accurately ripped (confidence 200)  [DB8C7CC1]
     Copy OK

Track  6

     Filename C:\Pink Floyd\06 - Comfortably Numb.wav

     Pre-gap length  0:00:00.02

     Peak level 95.4 %
     Track quality 100.0 %
     Test CRC F3BB4B44
     Copy CRC F3BB4B44
     Accurately ripped (confidence 200)  [8E224D7F]
     Copy OK

Track  7

     Filename C:\Pink Floyd\07 - The Show Must Go On.wav

     Pre-gap length  0:00:01.60

     Peak level 78.8 %
     Track quality 100.0 %
     Test CRC 8C3C77E7
     Copy CRC 8C3C77E7
     Accurately ripped (confidence 200)  [DDCB8F9D]
     Copy OK

Track  8

     Filename C:\Pink Floyd\08 - In The Flesh.wav

     Pre-gap length  0:00:00.04

     Peak level 97.2 %
     Track quality 100.0 %
     Test CRC 91C84798
     Copy CRC 91C84798
     Accurately ripped (confidence 200)  [6B9D5FD0]
     Copy OK

Track  9

     Filename C:\Pink Floyd\09 - Run Like Hell.wav

     Pre-gap length  0:00:00.04

     Peak level 97.2 %
     Track quality 100.0 %
     Test CRC 2979C028
     Copy CRC 2979C028
     Accurately ripped (confidence 200)  [568D4E7A]
     Copy OK

Track 10

     Filename C:\Pink Floyd\10 - Waiting For The Worms.wav

     Pre-gap length  0:00:00.04

     Peak level 97.2 %
     Track quality 100.0 %
     Test CRC 0CF596C4
     Copy CRC 0CF596C4
     Accurately ripped (confidence 200)  [F096D9E1]
     Copy OK

Track 11

     Filename C:\Pink Floyd\11 - Stop.wav

     Pre-gap length  0:00:00.02

     Peak level 18.7 %
     Track quality 100.0 %
     Test CRC 4E83B74C
     Copy CRC 4E83B74C
     Accurately ripped (confidence 200)  [D7DCACFC]
     Copy OK

Track 12

     Filename C:\Pink Floyd\12 - The Trial.wav

     Pre-gap length  0:00:00.04

     Peak level 85.7 %
     Track quality 100.0 %
     Test CRC 8E5B5098
     Copy CRC 8E5B5098
     Accurately ripped (confidence 200)  [3FD819D6]
     Copy OK

Track 13

     Filename C:\Pink Floyd\13 - Outside The Wall.wav

     Pre-gap length  0:00:00.04

     Peak level 11.5 %
     Track quality 100.0 %
     Test CRC E07DAAD9
     Copy CRC E07DAAD9
     Accurately ripped (confidence 200)  [0E8B3B74]
     Copy OK


All tracks accurately ripped

No errors occurred

End of status report
